<svg width="50" height="47" viewBox="0 0 50 47" fill="none" xmlns="http://www.w3.org/2000/svg">
<path d="M37.125 23.4474C37.115 22.4194 36.6778 21.4366 35.9081 20.7119L27.06 12.3099C26.6736 11.946 26.1508 11.7417 25.6059 11.7417C25.0611 11.7417 24.5383 11.946 24.1519 12.3099C23.9586 12.4915 23.8051 12.7076 23.7004 12.9458C23.5957 13.1839 23.5418 13.4393 23.5418 13.6972C23.5418 13.9551 23.5957 14.2105 23.7004 14.4486C23.8051 14.6867 23.9586 14.9028 24.1519 15.0845L30.9375 21.4934H10.3125C9.76549 21.4934 9.24089 21.6993 8.85409 22.0657C8.4673 22.4322 8.25 22.9292 8.25 23.4474C8.25 23.9656 8.4673 24.4626 8.85409 24.829C9.24089 25.1955 9.76549 25.4013 10.3125 25.4013H30.9375L24.1519 31.8298C23.7635 32.1952 23.5442 32.6917 23.5423 33.2102C23.5404 33.7287 23.7559 34.2267 24.1416 34.5946C24.5272 34.9626 25.0513 35.1703 25.5986 35.1721C26.146 35.174 26.6716 34.9698 27.06 34.6044L35.9081 26.2024C36.6828 25.4729 37.1204 24.4821 37.125 23.4474Z" fill="white"/>
</svg>
