<svg width="23" height="23" viewBox="0 0 23 23" fill="none" xmlns="http://www.w3.org/2000/svg">
<path d="M8.86459 18.0263C9.39386 18.0263 9.82292 17.5972 9.82292 17.068C9.82292 16.5387 9.39386 16.1096 8.86459 16.1096C8.33531 16.1096 7.90625 16.5387 7.90625 17.068C7.90625 17.5972 8.33531 18.0263 8.86459 18.0263Z" fill="white"/>
<path d="M16.5312 18.0263C17.0605 18.0263 17.4896 17.5972 17.4896 17.068C17.4896 16.5387 17.0605 16.1096 16.5312 16.1096C16.002 16.1096 15.5729 16.5387 15.5729 17.068C15.5729 17.5972 16.002 18.0263 16.5312 18.0263Z" fill="white"/>
<path d="M3.3925 4.97375H5.05042C5.40741 4.97411 5.75168 5.10641 6.01703 5.34523C6.28238 5.58405 6.45009 5.91252 6.48792 6.2675L7.1875 13.2633C7.22114 13.62 7.38761 13.951 7.65388 14.1906C7.92016 14.4303 8.26678 14.5611 8.625 14.5571H17.5375C17.8905 14.557 18.2311 14.4271 18.4944 14.192C18.7578 13.9569 18.9254 13.6332 18.9654 13.2825L19.6075 7.5325C19.6302 7.3337 19.6112 7.13234 19.5516 6.94131C19.492 6.75028 19.3932 6.5738 19.2615 6.42315C19.1298 6.27251 18.9681 6.15102 18.7868 6.06646C18.6054 5.9819 18.4084 5.93613 18.2083 5.93209H6.44958" stroke="white" strokeWidth="1.5" stroke-linecap="round" stroke-linejoin="round"/>
</svg>
