<svg xmlns="http://www.w3.org/2000/svg" viewBox="0 0 750 500">
  <rect width="750" height="500" fill="#AA151B"/>
  <rect y="125" width="750" height="250" fill="#F1BF00"/>
  <path d="M203.67,180.14l-1.3,1.93l-0.65,2.44v3.66l0.65,3v18.06l0.65,5.1l7.85-2.06l7.98,2.06l0.52-5.1v-18.06l0.52-3v-3.66l-0.52-2.43l-1.17-1.94h-14.54ZM205.89,170.83l-4.7,0.39l-0.78,4.17l5.35,3.78l5.48-3.78l-0.65-4.17l-4.7-0.39ZM223.12,171.74l0.13,3.39l2.74,1.83l4.57-2.61l-3.39-3.39l-4.05,0.78ZM188.47,171.74l4.05,0.78l-3.39,3.39l4.57,2.61l2.74-1.83l0.13-3.39Z" fill="#AA151B"/>
</svg>
